<?xml version="1.0" encoding="UTF-8" standalone="no"?><!DOCTYPE svg PUBLIC "-//W3C//DTD SVG 1.1//EN" "http://www.w3.org/Graphics/SVG/1.1/DTD/svg11.dtd"><svg width="100%" height="100%" viewBox="0 0 23 33" version="1.1" xmlns="http://www.w3.org/2000/svg" xmlns:xlink="http://www.w3.org/1999/xlink" xml:space="preserve" style="fill-rule:evenodd;clip-rule:evenodd;stroke-linejoin:round;stroke-miterlimit:1.41421;"><g><path d="M11.591,32.564c0,0 11.14,-14.605 11.14,-19.657c0,-6.148 -4.992,-11.139 -11.14,-11.139c-6.148,0 -11.14,4.991 -11.14,11.139c0,5.052 11.14,19.657 11.14,19.657Zm0,-26.802c3.147,0 5.702,2.555 5.702,5.702c0,3.147 -2.555,5.702 -5.702,5.702c-3.147,0 -5.702,-2.555 -5.702,-5.702c0,-3.147 2.555,-5.702 5.702,-5.702Z" style="fill:#868686;"/><path d="M11.591,31.36c0,0 11.14,-14.605 11.14,-19.657c0,-6.148 -4.992,-11.139 -11.14,-11.139c-6.148,0 -11.14,4.991 -11.14,11.139c0,5.052 11.14,19.657 11.14,19.657Zm0,-26.802c3.147,0 5.702,2.555 5.702,5.702c0,3.147 -2.555,5.702 -5.702,5.702c-3.147,0 -5.702,-2.555 -5.702,-5.702c0,-3.147 2.555,-5.702 5.702,-5.702Z" style="fill:#fff;"/></g></svg>