<?xml version="1.0" encoding="UTF-8" standalone="no"?><!DOCTYPE svg PUBLIC "-//W3C//DTD SVG 1.1//EN" "http://www.w3.org/Graphics/SVG/1.1/DTD/svg11.dtd"><svg width="100%" height="100%" viewBox="0 0 46 46" version="1.1" xmlns="http://www.w3.org/2000/svg" xmlns:xlink="http://www.w3.org/1999/xlink" xml:space="preserve" style="fill-rule:evenodd;clip-rule:evenodd;stroke-linejoin:round;stroke-miterlimit:1.41421;"><g id="Google.-Button"><g id="btn_google_light_normal"><g id="logo_googleg_48dp"><path id="Shape" d="M31.64,23.205c0,-0.639 -0.057,-1.252 -0.164,-1.841l-8.476,0l0,3.481l4.844,0c-0.209,1.125 -0.843,2.078 -1.796,2.716l0,2.259l2.908,0c1.702,-1.567 2.684,-3.875 2.684,-6.615Z" style="fill:#4285f4;"/><path id="Shape1" d="M23,32c2.43,0 4.467,-0.806 5.956,-2.18l-2.908,-2.259c-0.806,0.54 -1.837,0.859 -3.048,0.859c-2.344,0 -4.328,-1.583 -5.036,-3.71l-3.007,0l0,2.332c1.481,2.941 4.525,4.958 8.043,4.958Z" style="fill:#34a853;"/><path id="Shape2" d="M17.964,24.71c-0.18,-0.54 -0.282,-1.117 -0.282,-1.71c0,-0.593 0.102,-1.17 0.282,-1.71l0,-2.332l-3.007,0c-0.609,1.215 -0.957,2.59 -0.957,4.042c0,1.452 0.348,2.827 0.957,4.042l3.007,-2.332Z" style="fill:#fbbc05;"/><path id="Shape3" d="M23,17.58c1.321,0 2.508,0.454 3.44,1.345l2.582,-2.581c-1.559,-1.452 -3.596,-2.344 -6.022,-2.344c-3.518,0 -6.562,2.017 -8.043,4.958l3.007,2.332c0.708,-2.127 2.692,-3.71 5.036,-3.71Z" style="fill:#ea4335;"/><rect id="Shape4" x="14" y="14" width="18" height="18" style="fill:none;"/></g></g></g></svg>